<?xml version="1.0" encoding="UTF-8"?>
<svg width="21px" height="21px" viewBox="0 0 21 21" version="1.1" xmlns="http://www.w3.org/2000/svg" xmlns:xlink="http://www.w3.org/1999/xlink">
    <!-- Generator: sketchtool 61.2 (101010) - https://sketch.com -->
    <title>975C59D0-EA33-41D3-8574-62464307C3F4</title>
    <desc>Created with sketchtool.</desc>
    <g id="Welcome" stroke="none" stroke-width="1" fill="none" fill-rule="evenodd">
        <g id="Home" transform="translate(-154.000000, -1875.000000)" fill="#C39900">
            <path d="M164.87772,1889.83028 C162.486493,1890.03953 160.377784,1888.26845 160.168898,1885.87807 C159.961928,1883.48678 161.73118,1881.37859 164.122322,1881.171 C166.514614,1880.96213 168.623281,1882.73236 168.830123,1885.12245 C169.038072,1887.51488 167.26899,1889.62269 164.87772,1889.83028 L164.87772,1889.83028 Z M174.484577,1888.87866 C174.753382,1888.08752 174.92837,1887.25704 175,1886.40136 L173.291476,1885.57386 C173.293435,1885.29695 173.283512,1885.01795 173.258514,1884.73767 C173.25153,1884.6408 173.238541,1884.54571 173.227553,1884.44931 L174.83485,1883.43368 C174.667698,1882.59005 174.401959,1881.78422 174.048619,1881.0309 L172.15016,1881.16866 C171.964951,1880.83984 171.758024,1880.52388 171.533083,1880.2247 L172.416623,1878.54428 C171.858485,1877.90955 171.224587,1877.34325 170.531833,1876.8576 L168.957669,1877.9245 C168.635247,1877.73441 168.30005,1877.56374 167.95263,1877.41423 L167.878018,1875.5175 C167.087061,1875.24885 166.255817,1875.07358 165.401192,1875 L164.573227,1876.70993 C164.296543,1876.70746 164.018965,1876.71827 163.737384,1876.74242 C163.639733,1876.75089 163.544212,1876.76315 163.448733,1876.77457 L162.434538,1875.16573 C161.589793,1875.3344 160.783718,1875.60019 160.029598,1875.9529 L160.167876,1877.85104 C159.839364,1878.03683 159.523032,1878.24288 159.224587,1878.46865 L157.542849,1877.58461 C156.906906,1878.14384 156.340507,1878.77699 155.856981,1879.47074 L156.92492,1881.04385 C156.733707,1881.36658 156.56153,1881.70149 156.413287,1882.04785 L154.515466,1882.12232 C154.246788,1882.9135 154.072695,1883.74308 154,1884.59992 L155.709419,1885.42733 C155.70763,1885.7045 155.716658,1885.98307 155.740762,1886.26356 C155.749365,1886.36048 155.761502,1886.45518 155.774363,1886.55184 L154.165363,1887.5667 C154.334559,1888.41042 154.599106,1889.21629 154.95236,1889.96969 L156.850053,1889.8322 C157.036156,1890.1608 157.242189,1890.47544 157.467173,1890.77569 L156.583292,1892.45555 C157.141515,1893.09249 157.776606,1893.65841 158.469146,1894.14265 L160.042459,1893.07559 C160.365817,1893.26751 160.70127,1893.43873 161.047541,1893.58692 L161.122237,1895.48403 C161.91328,1895.75204 162.742139,1895.92765 163.597956,1896 L164.427837,1894.29071 C164.703627,1894.29242 164.983292,1894.28296 165.263936,1894.2589 C165.360352,1894.25115 165.455831,1894.23778 165.550415,1894.22565 L166.565377,1895.8358 C167.411271,1895.66675 168.216154,1895.40198 168.970701,1895.04927 L168.833445,1893.15049 C169.160636,1892.96351 169.475988,1892.75797 169.776776,1892.53318 L171.457449,1893.41684 C172.092242,1892.85761 172.658514,1892.22476 173.14319,1891.53131 L172.077209,1889.95811 C172.266506,1889.63479 172.437533,1889.29941 172.587905,1888.95271 L174.484577,1888.87866 Z" id="Bullet-point-cog"></path>
        </g>
    </g>
</svg>