<?xml version="1.0" encoding="UTF-8"?>
<svg width="599px" height="599px" viewBox="0 0 599 599" version="1.1" xmlns="http://www.w3.org/2000/svg" xmlns:xlink="http://www.w3.org/1999/xlink">
    <!-- Generator: sketchtool 61.2 (101010) - https://sketch.com -->
    <title>8752F0B8-5F4D-43EE-9583-3C6411974BDF</title>
    <desc>Created with sketchtool.</desc>
    <g id="Welcome" stroke="none" stroke-width="1" fill="none" fill-rule="evenodd">
        <g id="Home" transform="translate(-765.000000, -1527.000000)" fill="#E7D77C">
            <path d="M1075.91625,1952.49143 C1007.70776,1958.46115 947.557952,1907.93358 941.599579,1839.7374 C935.69587,1771.5157 986.162865,1711.37025 1054.36893,1705.44791 C1122.60779,1699.48913 1182.75638,1749.9924 1188.65645,1818.18008 C1194.58809,1886.43458 1144.12596,1946.56909 1075.91625,1952.49143 L1075.91625,1952.49143 Z M1347.39634,1922.22856 C1355.01249,1899.81314 1359.97047,1876.28291 1362,1852.03844 L1313.59181,1828.59266 C1313.64731,1820.74684 1313.36617,1812.8419 1312.65789,1804.90076 C1312.46,1802.15599 1312.09199,1799.46189 1311.78068,1796.73039 L1357.32075,1767.95434 C1352.58478,1744.0513 1345.0555,1721.21963 1335.04422,1699.87557 L1281.25452,1703.77857 C1276.00696,1694.46204 1270.14401,1685.50986 1263.77067,1677.03304 L1288.80432,1629.42122 C1272.99042,1611.43724 1255.02995,1595.39209 1235.40194,1581.63204 L1190.80062,1611.86072 C1181.66534,1606.47493 1172.16807,1601.63931 1162.32451,1597.40331 L1160.21052,1543.66251 C1137.80006,1536.05074 1114.24814,1531.08482 1090.03379,1529 L1066.57477,1577.44792 C1058.7354,1577.37795 1050.87068,1577.6844 1042.89254,1578.36848 C1040.12577,1578.60857 1037.41933,1578.95604 1034.7141,1579.27938 L1005.97856,1533.69567 C982.044148,1538.47459 959.205337,1546.00552 937.838597,1555.99889 L941.756477,1609.77952 C932.448648,1615.04344 923.485911,1620.88166 915.029952,1627.27849 L867.380723,1602.23049 C849.362339,1618.07536 833.314359,1636.0147 819.614451,1655.67088 L849.872738,1700.24234 C844.455036,1709.38635 839.576691,1718.87542 835.376464,1728.68903 L781.604869,1730.79918 C773.992334,1753.21582 769.059692,1776.72071 767,1800.99776 L815.43353,1824.44112 C815.382852,1832.29418 815.638654,1840.18706 816.321598,1848.13422 C816.565335,1850.8802 816.90922,1853.56344 817.273618,1856.30218 L771.685286,1885.05652 C776.479168,1908.96197 783.974661,1931.79485 793.983533,1953.14132 L847.751508,1949.24556 C853.024416,1958.55606 858.86202,1967.47084 865.236568,1975.97782 L840.193271,2023.57396 C856.009582,2041.62067 874.003833,2057.65496 893.625807,2071.3752 L938.202995,2041.1417 C947.364824,2046.57936 956.869331,2051.43067 966.680318,2055.62926 L968.796721,2109.38093 C991.209596,2116.97459 1014.69395,2121.95017 1038.94208,2124 L1062.45539,2075.57017 C1070.26943,2075.61843 1078.19327,2075.35059 1086.14486,2074.66892 C1088.87664,2074.44934 1091.58187,2074.0705 1094.26176,2073.72665 L1123.01902,2119.34776 C1146.98602,2114.55799 1169.79104,2107.05602 1191.16985,2097.06264 L1187.28093,2043.26392 C1196.55135,2037.96621 1205.48634,2032.14247 1214.00866,2025.77339 L1261.62772,2050.81053 C1279.61353,2034.96566 1295.65789,2017.03477 1309.39038,1997.38703 L1279.18759,1952.81316 C1284.551,1943.65226 1289.39676,1934.14992 1293.65732,1924.32666 L1347.39634,1922.22856 Z" id="Image-Cog" transform="translate(1064.500000, 1826.500000) rotate(18.000000) translate(-1064.500000, -1826.500000) "></path>
        </g>
    </g>
</svg>